<svg fill="none" height="192" viewBox="0 0 140 192" width="140" xmlns="http://www.w3.org/2000/svg" xmlns:xlink="http://www.w3.org/1999/xlink"><mask id="a" height="192" maskUnits="userSpaceOnUse" width="140" x="0" y="0"><path d="m0 0h140v192h-140z" fill="#fff"/></mask><mask id="b" fill="#000" height="94" maskUnits="userSpaceOnUse" width="76" x="39.7148" y="38.2593"><path d="m39.7148 38.2593h76v94h-76z" fill="#fff"/><path clip-rule="evenodd" d="m79.0072 41.2593v17.8048h32.9928v-17.8048zm-2.6649 0v17.8048h-33.6275v-17.8048zm-33.6275 20.4696v66.5811h33.6275v-66.5811zm36.2923 66.5811h32.9929v-66.5811h-32.9928z" fill="#000" fill-rule="evenodd"/></mask><g mask="url(#a)"><path clip-rule="evenodd" d="m79.0072 41.2593v17.8048h32.9928v-17.8048zm-2.6649 0v17.8048h-33.6275v-17.8048zm-33.6275 20.4696v66.5811h33.6275v-66.5811zm36.2923 66.5811h32.9929v-66.5811h-32.9928z" fill="#f3f6fb" fill-rule="evenodd"/><path d="m79.0072 59.0641h-3v3h3zm0-17.8048v-3h-3v3zm32.9928 17.8048v3h3v-3zm0-17.8048h3v-3h-3zm-35.6577 0h3v-3h-3zm0 17.8048v3h3v-3zm-33.6275 0h-3v3h3zm0-17.8048v-3h-3v3zm0 87.0507h-3v3h3zm0-66.5811v-3h-3v3zm33.6275 66.5811v3h3v-3zm0-66.5811h3v-3h-3zm35.6577 66.5811v3h3v-3zm-32.9929 0h-3v3h3zm32.9929-66.5811h3v-3h-3zm-32.9928 0v-3h-3v3zm3-2.6648v-17.8048h-6v17.8048zm29.9928-3h-32.9928v6h32.9928zm-3-14.8048v17.8048h6v-17.8048zm-29.9928 3h32.9928v-6h-32.9928zm-5.6649-3v17.8048h6v-17.8048zm3 14.8048h-33.6275v6h33.6275zm-30.6275 3v-17.8048h-6v17.8048zm-3-14.8048h33.6275v-6h-33.6275zm3 84.0507v-66.5811h-6v66.5811zm30.6275-3h-33.6275v6h33.6275zm-3-63.5811v66.5811h6v-66.5811zm-30.6275 3h33.6275v-6h-33.6275zm69.2852 60.5811h-32.9929v6h32.9929zm-3-63.5811v66.5811h6v-66.5811zm-29.9928 3h32.9928v-6h-32.9928zm2.9999 63.5811.0001-66.5811h-6l-.0001 66.5811z" fill="#e1e7f6" mask="url(#b)"/><path d="m61.8251 46.9896c.0103-1.2099 1.0039-2.1727 2.219-2.1624 1.2099.0103 2.1829 1.004 2.1778 2.2087-.0052.9885-.7723 2.1727-2.2242 2.1624-1.4106-.0155-2.2035-1.1739-2.1726-2.2087z" fill="#ffda05"/><path d="m14.3443 34.7715c-.0103 1.1223-.9422 2.0182-2.0748 1.9821-1.2923-.0463-1.9822-1.1275-1.9668-2.0388.0103-.8855.6951-1.977 2.0285-1.977 1.2666-.0051 2.0388 1.0246 2.0131 2.0337z" fill="#f55538"/><path d="m48.8898 21.5898c-1.0502 0-1.91-.8598-1.8894-1.8946.0257-1.0658.8392-1.8844 1.9255-1.8638 1.1532.0206 1.8534.9371 1.8637 1.8689.0052 1.0452-.8443 1.8895-1.8998 1.8895z" fill="#ff6445"/><path d="m28.2163 57.7866c.0051.9731-.8238 1.7917-1.8071 1.7865-.9628-.0051-1.766-.8031-1.7814-1.7607-.0103-.9834.7928-1.802 1.7814-1.8123.9782-.0103 1.8019.8032 1.8071 1.7865z" fill="#47c7f4"/><path d="m60.4598 89.7402c-.0052.9422-.8083 1.7196-1.7608 1.7041-.937-.0154-1.6938-.7722-1.699-1.7093-.0051-.9421.7826-1.735 1.7299-1.735.9473.0051 1.735.798 1.7299 1.7402z" fill="#47c7f4"/><path d="m19.4495 85.7509c.0206.9318-.8444 1.7247-1.7608 1.6835-.937-.0412-1.6887-.7877-1.6887-1.7196 0-.937.798-1.735 1.7453-1.7144 1.0349.0206 1.7557.8958 1.7042 1.7505z" fill="#ffda05"/><path d="m143.501 85.9602c.01 1.5754-.716 2.8008-1.828 3.8356-1.488 1.385-3.248 2.3683-5.014 3.3414-2.24 1.2305-4.603 2.219-6.863 3.4083-1.385.731-2.667 1.6011-3.748 2.7492-.52.5509-.958 1.1583-1.236 1.8633-.36.922-.329 1.792.366 2.564.257.284.314.613.154.968-.154.356-.458.505-.829.541-.345.031-.576-.165-.777-.407-.953-1.153-1.189-2.45-.757-3.871.515-1.6789 1.637-2.9093 2.95-4.0008 1.818-1.5085 3.939-2.4867 6.05-3.4804 2.234-1.0554 4.458-2.1417 6.538-3.4906.633-.4068 1.231-.8598 1.787-1.3695 1.168-1.0658 1.632-2.3529 1.256-3.9129-.242-.9988-.484-1.9976-.721-2.9964-.139-.5869.108-1.0451.618-1.179.515-.1338.973.1493 1.107.7363.324 1.39.782 2.7544.906 4.1908.015.1802.026.345.041.5097z" fill="#47c7f4"/><path d="m98.639 41.7671c-1.076 0-1.6372-.8752-1.2768-1.6836.278-.6229.6333-1.2047.9937-1.7813.2934-.4685.5972-.937.8031-1.457.1184-.3038.1648-.6179.1339-.9371-.0669-.7722-.3089-1.0863-1.0503-1.318-.4479-.1441-.9061-.2625-1.354-.4067-2.4919-.7929-3.5473-3.1766-2.4662-5.5706.2678-.587.6333-1.1069 1.0349-1.6064.4221-.5148.8443-1.0348 1.2768-1.5393.4685-.5406 1.1481-.6179 1.6681-.2008.5251.4221.5972 1.1429.1545 1.7093-.5612.7207-1.1945 1.39-1.7145 2.152-.3243.4737-.4942.9834-.4222 1.5703.067.5457.3192.9422.8598 1.1121.4891.1544.9834.2986 1.4725.4427 2.4097.726 3.5057 2.8729 2.6877 5.2721-.18.5303-.443 1.0194-.731 1.493-.417.6899-.8395 1.3747-1.2102 2.0903-.2214.4273-.5818.6539-.8598.659z" fill="#ffda05"/><path d="m119.898 67.9699c-.006.4119-.165.6745-.479.8289-.33.1648-.659.1391-.942-.0875-.237-.1905-.448-.417-.659-.6384-.433-.4582-.953-.7053-1.586-.7259-.273-.0103-.53.0412-.741.2162-1.215 1.004-3.187.6333-4.248-.3758-.252-.2368-.515-.4685-.772-.6951-.464-.4067-.546-.9009-.211-1.318.334-.4118.86-.4479 1.328-.0669.257.2111.505.4376.747.6642.746.7104 1.446.7671 2.316.2213 1.128-.7053 2.255-.5097 3.373.0258.679.3243 1.153.9061 1.668 1.4312.159.1545.221.3604.206.52z" fill="#47c7f4"/><path d="m119.357 14.8226c0-1.0194.803-1.8226 1.822-1.8226.984.0051 1.808.8186 1.818 1.802.01.9988-.814 1.838-1.818 1.8483-1.003.0103-1.822-.8083-1.822-1.8277z" fill="#ffda05"/><path d="m6.45409 100.676c-1.0091.675-2.42493.387-3.09423-.628-.6693-1.0139-.37584-2.4297.63841-3.0887 1.00395-.6539 2.38374-.3759 3.06334.6229.67959.9937.40158 2.4198-.60752 3.0938z" fill="#47c7f4"/><path d="m12.1679 141.585c.206.299.1957.592.0464.881-.3141.602-.6282 1.204-.9474 1.802-.1802.339-.4685.504-.8546.463-.67446-.072-1.35406-.134-2.02336-.227-.65385-.092-.93702-.638-.6487-1.23.29861-.608.62811-1.205.94217-1.807.19049-.366.4994-.505.89583-.458.64866.067 1.29746.139 1.94096.211.2729.036.5097.134.6487.365z" fill="#ffda05"/><path d="m86.4573 62.292c.036.1081.0772.2162.1133.3295.314.973.1853 1.8895-.3913 2.7287-.4737.695-1.1121 1.215-1.8586 1.5909-.6899.3449-1.4107.453-2.1624.2419-.659-.1802-1.2047-.5303-1.56-1.1326-.2625-.4428-.3398-.9268-.2625-1.4313.0823-.5355.3089-1.0091.659-1.4261.6178-.7311 1.354-1.3077 2.2189-1.7145.0515-.0257.1082-.0515.1545-.0824.036-.0205.0309-.0617.0052-.0875-.0206-.0257-.0567-.0412-.0876-.0617-.6075-.3656-1.2459-.6694-1.9049-.9268-2.0285-.7928-4.1445-1.2562-6.276-1.6681-.1596-.0309-.3243-.0566-.4839-.0978-.4222-.1081-.6848-.4891-.6076-.9061.0773-.4171.4737-.7054.8804-.6384.4068.072.8135.1441 1.2151.2213 1.3077.2626 2.5999.5612 3.8768.9422.8701.2574 1.7298.5457 2.5639.9061.7053.3038 1.3901.6539 2.0182 1.0967.175.1235.3449.2471.5045.3912.1236.1133.242.1545.4119.1339.7929-.1081 1.5755-.036 2.3426.1854.7002.2007 1.3283.5508 1.9204.9576.4067.2831.7722.6178 1.0966.9936.6332.7363 1.0709 1.5754 1.3025 2.5176.0258.103.0515.206.0773.3141.139.0309.2625-.0206.3861-.0412 1.2871-.2214 2.5588-.1596 3.815.2111 1.3026.3913 2.4095 1.0812 3.1972 2.2035.6801.9679 1.0191 2.0646 1.0811 3.2436.052.9833-.149 1.9203-.494 2.8368-.4635 1.2253-1.1483 2.3168-2.0338 3.2847-1.1996 1.3077-2.5742 2.3837-4.16 3.1869-1.6835.8546-3.4649 1.3489-5.3492 1.4982-.1802.0154-.3501.0051-.5149-.0875-.2934-.1699-.4324-.4274-.4067-.762.0257-.3192.2317-.5766.5457-.6693.1236-.0361.2523-.0515.381-.0618 1.0761-.0875 2.1212-.3295 3.1354-.6847 1.4365-.5097 2.739-1.2614 3.9077-2.2396.659-.5561 1.2614-1.1687 1.7968-1.8483.7311-.9319 1.2408-1.977 1.4982-3.1303.2781-1.2408.0721-2.4146-.5766-3.5061-.2831-.4737-.6796-.8392-1.1429-1.1378-.6539-.4222-1.3695-.6796-2.1367-.798-.8958-.139-1.7865-.1081-2.6669.0927-.1802.0411-.1802.0411-.2059.2265-.0978.8031-.3141 1.5703-.6487 2.3014-.2883.6281-.6745 1.1892-1.0966 1.7247-.6075.762-1.3283 1.3952-2.1315 1.9461-.5045.3449-1.0451.5921-1.6475.695-1.2614.2266-2.3992-.6126-2.5536-1.8894-.1185-.9834.175-1.838.8031-2.5897.3656-.4376.7929-.8083 1.2614-1.1224.3295-.2265.6693-.4428 1.0142-.6435.8444-.4943 1.6887-.9885 2.5846-1.385.2162-.0978.4324-.1802.6487-.278.1441-.0618.1544-.0772.1235-.2471-.1235-.7105-.4067-1.3489-.8495-1.9204-.4839-.6281-1.1017-1.0915-1.8174-1.4261-.4324-.1957-.8804-.3347-1.354-.3965-.0464-.0051-.0927 0-.139 0 .0103.0103 0 .0206-.0206.0361zm4.1291 5.6684c-.0979-.0411-.1699.0206-.2369.0567-1.0709.5251-2.1005 1.112-3.0942 1.7659-.1648.1081-.3244.2317-.4788.3604-.278.2214-.52.4788-.7259.7671-.242.345-.3244.7259-.2832 1.1378.036.3295.3037.6436.7465.5612.2935-.0566.5715-.1545.8238-.3089 1.1223-.7105 2.0491-1.6166 2.6875-2.7905.2574-.4942.4633-1.0039.5612-1.5497zm-8.5362-3.5524c-.0566.0978-.103.2317-.1339.3707-.0617.3192.0618.5509.3192.7259.2317.1596.4891.2214.7672.2008.2265-.0206.4376-.0824.6384-.1853.4016-.206.7568-.4788 1.0554-.8135.1339-.1493.2574-.3038.3398-.4942.2368-.5406.1751-1.0555-.1544-1.5394-.1082-.1545-.1133-.1648-.2832-.103-.6642.2574-1.2871.5818-1.838 1.0297-.2729.2214-.5303.4685-.7105.8083z" fill="#ffda05"/><path d="m30.8318 136.359.7054-7.831.0609-.447c.0451-.33.2578-1.354.6875-1.413.7616-.104.7216 1.721.7453 2.144.1515 2.702 1.3282 5.584 2.6737 7.981 1.731 3.084 7.4456 5.201 10.9177 5.201 7.613 0 8.9172-1.398 9.7563-1.359 1.0009.047-2.0396 4.841-2.0274 6.124l.0001.005c.0059.61.0334 1.212.0823 1.806.0015.018.003.036.0045.054.0325.392.0729.78.1213 1.164l-25.062-6.326.494-3.617c.4446-1.911.7653-3.189.8287-3.44.0066-.026.0106-.042.0117-.046z" fill="#005339"/><path d="m45.988 110.952s9.2034 2.432 11.4744 8.272c2.0077 4.274 4.9181 17.502 5.7491 21.388.0273.128.0307.262.01.391-.0207.13-.065.252-.1295.357-.0645.104-.1475.189-.2425.248-.095.058-.1995.089-.3053.089h-14.0492z" fill="#3cb95a"/><path d="m55.9699 128.685c1.4763 28.271 2.6286 53.841 2.5317 72.744.001.978-.0701 1.929-.2019 2.698-.1318.768-.3163 1.309-.5236 1.534-14.6959 14.54-27.2131 4.36-30.7781.632-.341-.355-.6485-1.201-.8775-2.415-.2289-1.214-.3675-2.733-.3954-4.334-.2944-17.004.5697-45.069 1.621-71.018l2.5137-11.027z" fill="#005339"/><path d="m31.4863 91.6887c-.1037-8.0485 3.0399-10.3142 4.6967-11.0996 13.2422-5.9176 22.3427 5.8012 15.5008 16.8952 0 0-4.6053 10.0347-.0299 15.3337 1.4885 1.724 7.2043 7.321 5.9733 15.528-.6754 4.502-3.9604 9.577-9.8045 9.577-2.7667 0-8.4285-2.51-10.2675-5.493-4.5268-7.343-5.0062-18.799-13.8323-17.566 1.2944-2.789 7.9795-6.403 7.7634-23.1753z" fill="#543f3d"/><path d="m23.7228 114.864c1.2944-2.789 7.9795-6.403 7.7634-23.1754-.0517-4.0142.7044-6.5898 1.681-8.2608l.0778-.0665c-.3794 6.526 2.9684 19.9897 11.8861 22.7667l5.2895-7.9331.7817.4801c-1.0477 2.814-3.1636 9.956.4514 14.143.5154.597 1.5373 1.658 2.6023 3.131.3554 2.294.8765 6.858-1.7341 8.36-.2681.154-.6033.05-.6531-.254-.6409-3.922-.9709-6.693-2.9407-9.77-1.8498-2.889-10.7209-8.201-13.4722-11.468-.0565-.059-.1296-.1-.2096-.117-.0801-.016-.1634-.009-.239.022s-.1401.085-.1849.153-.0678.148-.0661.23c.1039 4.415 1.6332 11.73-1.4828 19.618-1.9634-4.769-4.2539-8.599-9.5507-7.859z" fill="#3d2e2c"/><path d="m45.973 106.355c-3.6726-1.345-5.5059-12.4472-5.5059-12.4472s4.8629-10.5012 8.2237-9.6299c3.0566.7925 4.3674 5.0283 4.0895 7.6899 0 0-.1207 1.1169-.3609 1.6196-.245.5126-.7147 4.0584-.9725 5.1521-.1099.466-4.1527 7.7525-5.4739 7.6155z" fill="#fdb47e"/><path d="m37.5678 110.941c-.0227-.095-.0101-.195.0353-.282s.1207-.155.2121-.192c.0914-.036.1929-.039.286-.007.0932.032.1717.096.2213.181 2.7452 4.684 9.4421 15.661 12.5094 16.735 1.7597.616 2.712.575 3.2273.344.0646-.031.1363-.045.2078-.039.0715.005.1403.03.1994.07.0591.041.1063.096.1369.161.0306.064.0435.136.0373.207-.162 1.665-.9348 4.384-4.2703 4.215-4.328-.22-10.8576-13.257-12.8025-21.393z" fill="#3d2e2c"/><path d="m47.4266 84.4195c.3936-.1874.8391-.2373 1.2647-.1415 3.0566.7924 4.3674 5.0283 4.0895 7.6898 0 0-.1207 1.117-.3609 1.6197 0 0 1.336-5.7041-4.9933-9.168z" fill="#e48544"/><path d="m46.6639 92.9382c.0373 0 .0739-.0103.1057-.0297.0318-.0193.0577-.0471.0747-.0801.017-.0331.0246-.0702.0218-.1073-.0027-.037-.0156-.0726-.0374-.1028-.1873-.24-.4205-.4407-.686-.5905-.2656-.1498-.5583-.2457-.8612-.2822-.9418-.0999-2.1276.4235-2.1777.4458-.0243.0109-.0463.0264-.0646.0457-.0183.0194-.0326.0421-.0421.0669s-.014.0513-.0132.0779c.0008.0265.0068.0527.0177.0769.0109.0243.0265.0461.0459.0644.0194.0182.0422.0324.0671.0419s.0515.0139.0781.0132c.0267-.0008.0529-.0068.0773-.0177.0112-.005 1.1367-.5014 1.9694-.4127.4959.0643.9474.3176 1.2597.7067.0189.0259.0437.047.0723.0615.0286.0146.0603.0221.0925.0221z" fill="#3d2e2c"/><path d="m45.6989 92.6498c-.0131.1262-.0636.2456-.145.3432s-.19.1689-.3121.2048c-.1221.036-.2522.0351-.3737-.0026-.1216-.0378-.2292-.1106-.3091-.2094-.08-.0987-.1287-.2189-.1401-.3452-.0113-.1264.0153-.2532.0764-.3645s.154-.2021.2669-.2607.2407-.0825.3673-.0687c.1689.0185.3236.1028.4303.2345.1067.1318.1567.3002.1391.4686z" fill="#3d2e2c"/><path d="m49.2716 93.0735c.0407.0001.0805-.0122.1142-.0351.0128-.0087.7807-.5179 1.5874-.4315.4006.0541.7857.1896 1.1315.3982.0226.014.0479.0234.0742.0276.0263.0043.0532.0034.0792-.0027.0259-.0061.0504-.0173.0721-.0328.0216-.0155.04-.0352.054-.0578s.0234-.0477.0277-.0739.0034-.053-.0028-.0789c-.0061-.0259-.0173-.0503-.0328-.0718-.0156-.0216-.0353-.0399-.058-.0539-.3978-.2406-.8416-.3961-1.3031-.4564-.9618-.1022-1.8222.475-1.8584.4997-.0358.0244-.0628.0596-.0771.1004s-.0151.0852-.0023.1264c.0129.0413.0387.0775.0736.1031s.0772.0395.1206.0394z" fill="#3d2e2c"/><path d="m51.5676 93.1098c-.0132.1261-.0637.2456-.145.3432-.0814.0975-.19.1688-.3121.2048s-.2522.0351-.3738-.0027c-.1215-.0377-.2291-.1106-.3091-.2093-.0799-.0987-.1287-.2189-.14-.3453-.0113-.1263.0152-.2532.0763-.3645s.154-.202.2669-.2606c.113-.0587.2408-.0826.3674-.0687.1689.0184.3236.1027.4303.2345.1066.1317.1567.3002.1391.4686z" fill="#3d2e2c"/><path d="m46.915 98.0142c.2537.2034.5526.3435.8716.4085.1481.0337.299.0541.4508.061.0764.0034.1529.0018.229-.0046.0395-.003.0747-.0083.1181-.0137.0662-.0126.131-.0318.1935-.0572.2083-.1076.3883-.2627.5252-.4527.1287-.1378.2311-.2978.3022-.4722.0712-.1592.113-.3299.1232-.5039.0035-.1696-.0179-.3388-.0636-.5022l-.0031-.0118-.0061-.0147c-.1121-.2715-.2139-.5604-.3041-.8464-.0907-.2873-.169-.5775-.235-.8706-.1419-.5751-.1932-1.1686-.1522-1.7594l.0002-.0027c.0028-.0265.0004-.0534-.0073-.079-.0076-.0255-.0203-.0494-.0372-.0701s-.0378-.0378-.0614-.0504-.0495-.0205-.0762-.0231-.0536.0001-.0792.0079-.0494.0206-.0701.0376c-.0206.017-.0377.038-.0502.0616-.0124.0236-.0201.0495-.0225.076v.0004c-.0458.634.0081 1.2713.1597 1.8888.0685.3054.1498.6068.244.904.0944.2984.196.5886.3179.8837l-.0092-.0264c.076.2498.0721.517-.0111.7645-.0362.1063-.1077.1972-.2026.2577-.0949.0606-.2076.0872-.3197.0756-.0253-.0023-.0505-.0065-.0753-.0125l-.1115-.0157-.2252-.0315c-.1502-.0208-.301-.0366-.4514-.0552-.3009-.0364-.6027-.0647-.905-.0879-.0525-.004-.1048.0087-.1496.0363-.0447.0275-.0795.0686-.0993.1171-.0198.0486-.0236.1021-.0109.153.0127.0508.0414.0963.0817.1299z" fill="#e48544"/><path d="m46.8441 91.2068c.046 0 .0908-.0155.1268-.0441.036-.0287.0612-.0686.0714-.1134s.0048-.0917-.0152-.133c-.0201-.0413-.0537-.0746-.0953-.0944-.0966-.0458-2.3802-1.1113-4.0428-.0827-.0226.014-.0423.0324-.0578.054-.0156.0216-.0267.046-.0328.0719-.006.0258-.0069.0526-.0026.0789.0044.0262.0139.0513.0279.0739.0141.0225.0325.0421.0542.0576s.0462.0266.0722.0326c.0259.006.0529.0069.0792.0026s.0515-.0138.0741-.0278c1.4723-.9111 3.6319.0939 3.6535.1042.0272.0129.057.0197.0872.0197z" fill="#3d2e2c"/><path d="m52.4927 91.5432c.0464.0001.0915-.0157.1276-.0447.0362-.029.0612-.0694.0711-.1146s.0039-.0924-.0169-.1337-.0552-.0743-.0974-.0934c-1.3936-.6331-3.1008-.2313-3.1726-.2139-.0518.0132-.0963.0461-.1238.0917-.0276.0457-.036.1003-.0234.152s.0451.0965.0905.1245c.0455.0279.1002.037.1523.0251.0165-.0039 1.6446-.3853 2.9086.1887.0263.0121.055.0183.084.0183z" fill="#3d2e2c"/><path d="m39.4134 134.439c-.9219-2.522-3.3019-9.694-2.5266-15.482.0116-.092.0549-.178.1225-.242.0676-.065.1554-.104.2486-.111.0932-.008.1861.017.263.07.077.053.1332.131.1593.22 1.211 4.186 2.1666 8.378 4.5347 12.116 1.042 1.644 2.8749 4.524 3.5256 6.594-2.0374-.536-4.5215-1.705-6.3271-3.165z" fill="#3d2e2c"/><path d="m48.6243 99.9203c-.3197.8367-1.0942 1.6757-1.7738 1.5607-1.3917-.235-1.5871-1.235-1.7018-1.9317.4346.4727 1.0275.7717 1.6674.8397.6399.069 1.2829-.098 1.8082-.4687z" fill="#fff"/><path d="m46.9722 101.693c.5895 0 1.1654-.493 1.756-1.501.0271-.047.0347-.102.021-.154-.0137-.0517-.0475-.0961-.0941-.1231-.0465-.0271-.1019-.0346-.154-.021-.0521.0137-.0966.0474-.1238.0938-.5404.9223-1.0437 1.3573-1.4984 1.2933-1.0277-.145-1.2921-.863-1.4852-1.3873-.0194-.0526-.0377-.1024-.0558-.1489-.0201-.0491-.0587-.0885-.1077-.1096-.0489-.021-.1042-.0221-.1539-.0029-.0496.0192-.0898.0571-.1117.1055s-.0238.1034-.0053.1532c.0171.0444.0347.092.0531.142.2024.55.5412 1.47 1.8096 1.649.0498.007.1.011.1502.011z" fill="#e48544"/><path d="m67.1514 120.457h-.1241v2.037h.1241z" fill="#263238"/><path d="m66.2213 117.742s2.4805 3.31.8062 3.31c-1.6123 0-.8062-3.31-.8062-3.31z" fill="#f7c942"/><path d="m67.7715 121.985h-1.3023v7.638h1.3023z" fill="#f55538"/><path d="m82.7163 120.457h-.124v2.037h.124z" fill="#263238"/><path d="m81.8483 117.742s2.4804 3.31.8061 3.31-.8061-3.31-.8061-3.31z" fill="#f7c942"/><path d="m83.3364 121.985h-1.3022v7.638h1.3022z" fill="#f55538"/><path d="m74.9651 120.457h-.124v2.037h.124z" fill="#263238"/><path d="m74.035 117.742s2.4805 3.31.8062 3.31c-1.6123 0-.8062-3.31-.8062-3.31z" fill="#f7c942"/><path d="m75.5854 121.985h-1.3022v7.638h1.3022z" fill="#f55538"/><path d="m76.3912 128.096c-.434 0-.8061.34-.9301.849-.1861-.509-.5581-.849-.9302-.849-.4341 0-.8061.34-.9302.849-.186-.509-.5581-.849-.9301-.849-.4341 0-.8062.34-.9302.849-.186-.509-.5581-.849-.9302-.849-.434 0-.8061.34-.9301.849-.1861-.509-.5581-.849-.9302-.849-.4341 0-.8061.34-.9302.849-.186-.509-.5581-.849-.9301-.849-.3721 0-.8062.34-.9302.849-.186-.509-.5581-.849-.9302-.849-.5581 0-1.0542.679-1.0542 1.443s.4961 1.443 1.0542 1.443c.4341 0 .8062-.34.9302-.849.186.509.5581.849.9302.849.372 0 .8061-.34.9301-.849.1861.509.5581.849.9302.849.4341 0 .8061-.34.9302-.849.186.509.5581.849.9301.849.4341 0 .8062-.34.9302-.849.186.509.5581.849.9302.849.4341 0 .8061-.34.9301-.849.1861.509.5581.849.9302.849.4341 0 .8062-.34.9302-.849.186.509.5581.849.9301.849.5581 0 1.0542-.679 1.0542-1.443s-.434-1.443-1.0542-1.443z" fill="#f7c942"/><path d="m76.3912 128.096c-.434 0-.8061.34-.9301.849-.1861-.509-.5581-.849-.9302-.849-.4341 0-.8061.34-.9302.849-.186-.509-.5581-.849-.9301-.849-.4341 0-.8062.34-.9302.849-.186-.509-.5581-.849-.9302-.849-.434 0-.8061.34-.9301.849-.1861-.509-.5581-.849-.9302-.849-.4341 0-.8061.34-.9302.849-.186-.509-.5581-.849-.9301-.849-.3721 0-.8062.34-.9302.849-.186-.509-.5581-.849-.9302-.849-.5581 0-1.0542.679-1.0542 1.443s.4961 1.443 1.0542 1.443c.4341 0 .8062-.34.9302-.849.186.509.5581.849.9302.849.372 0 .8061-.34.9301-.849.1861.509.5581.849.9302.849.4341 0 .8061-.34.9302-.849.186.509.5581.849.9301.849.4341 0 .8062-.34.9302-.849.186.509.5581.849.9302.849.4341 0 .8061-.34.9301-.849.1861.509.5581.849.9302.849.4341 0 .8062-.34.9302-.849.186.509.5581.849.9301.849.5581 0 1.0542-.679 1.0542-1.443s-.434-1.443-1.0542-1.443z" fill="#f7c942" opacity=".7"/><path d="m85.0731 128.096c-.434 0-.8061.34-.9301.849-.1861-.509-.5581-.849-.9302-.849-.4341 0-.8061.34-.9302.849-.186-.509-.5581-.849-.9301-.849-.4341 0-.8062.34-.9302.849-.186-.509-.5581-.849-.9302-.849-.434 0-.8061.34-.9301.849-.1861-.509-.5581-.849-.9302-.849-.4341 0-.8061.34-.9302.849-.186-.509-.5581-.849-.9301-.849-.4341 0-.8062.34-.9302.849-.186-.509-.5581-.849-.9302-.849-.5581 0-1.0542.679-1.0542 1.443s.4961 1.443 1.0542 1.443c.4341 0 .8062-.34.9302-.849.186.509.5581.849.9302.849.434 0 .8061-.34.9301-.849.1861.509.5581.849.9302.849.4341 0 .8061-.34.9302-.849.186.509.5581.849.9301.849.4341 0 .8062-.34.9302-.849.186.509.5581.849.9302.849.434 0 .8061-.34.9301-.849.1861.509.5581.849.9302.849.4341 0 .8061-.34.9302-.849.186.509.5581.849.9301.849.5581 0 1.0542-.679 1.0542-1.443s-.4961-1.443-1.0542-1.443z" fill="#f7c942"/><path d="m85.0731 128.096c-.434 0-.8061.34-.9301.849-.1861-.509-.5581-.849-.9302-.849-.4341 0-.8061.34-.9302.849-.186-.509-.5581-.849-.9301-.849-.4341 0-.8062.34-.9302.849-.186-.509-.5581-.849-.9302-.849-.434 0-.8061.34-.9301.849-.1861-.509-.5581-.849-.9302-.849-.4341 0-.8061.34-.9302.849-.186-.509-.5581-.849-.9301-.849-.4341 0-.8062.34-.9302.849-.186-.509-.5581-.849-.9302-.849-.5581 0-1.0542.679-1.0542 1.443s.4961 1.443 1.0542 1.443c.4341 0 .8062-.34.9302-.849.186.509.5581.849.9302.849.434 0 .8061-.34.9301-.849.1861.509.5581.849.9302.849.4341 0 .8061-.34.9302-.849.186.509.5581.849.9301.849.4341 0 .8062-.34.9302-.849.186.509.5581.849.9302.849.434 0 .8061-.34.9301-.849.1861.509.5581.849.9302.849.4341 0 .8061-.34.9302-.849.186.509.5581.849.9301.849.5581 0 1.0542-.679 1.0542-1.443s-.4961-1.443-1.0542-1.443z" fill="#f7c942" opacity=".7"/><path d="m88.7315 131.406h-27.657v15.702h27.657z" fill="#00b14f"/><path d="m88.7315 131.406h-27.657v15.702h27.657z" fill="#f7c942"/><path clip-rule="evenodd" d="m65.3541 139.667c-.6201-.849-1.5503-.849-2.1704 0-.5069.694-1.2625.821-1.8602.38v-5.217h27.657v5.118c-.6017.554-1.3805.461-1.9224-.281-.6202-.849-1.5503-.849-2.1704 0s-1.5503.849-2.1704 0-1.5503-.849-2.1704 0-1.5503.849-2.1704 0-1.5503-.849-2.1704 0-1.5503.849-2.1704 0-1.5503-.849-2.1704 0-1.5503.849-2.1704 0-1.5503-.849-2.1704 0-1.5503.849-2.1704 0z" fill="#8f5338" fill-rule="evenodd" opacity=".2"/><path d="m62.935 136.244c.6202-.848 1.5503-.848 2.1704 0 .6201.849 1.5503.849 2.1704 0 .6201-.848 1.5503-.848 2.1704 0 .6201.849 1.5503.849 2.1704 0 .6201-.848 1.5503-.848 2.1704 0 .6201.849 1.5503.849 2.1704 0 .6201-.848 1.5503-.848 2.1704 0 .6201.849 1.5503.849 2.1704 0 .6201-.848 1.5503-.848 2.1704 0 .6201.849 1.5503.849 2.1704 0 .6201-.848 1.5503-.848 2.1704 0 .6201.849 1.5502.849 2.1704 0l.186-.254c.31-.425.4341-.934.4341-1.528v-3.225c0-.594-.3101-1.019-.7442-1.019h-28.029c-.4341 0-.7442.425-.7442 1.019v3.225c0 .594.1861 1.103.4341 1.528l.186.254c.6201.849 1.6123.849 2.2324 0z" fill="#00b14f"/><path d="m62.935 136.244c.6202-.848 1.5503-.848 2.1704 0 .6201.849 1.5503.849 2.1704 0 .6201-.848 1.5503-.848 2.1704 0 .6201.849 1.5503.849 2.1704 0 .6201-.848 1.5503-.848 2.1704 0 .6201.849 1.5503.849 2.1704 0 .6201-.848 1.5503-.848 2.1704 0 .6201.849 1.5503.849 2.1704 0 .6201-.848 1.5503-.848 2.1704 0 .6201.849 1.5503.849 2.1704 0 .6201-.848 1.5503-.848 2.1704 0 .6201.849 1.5502.849 2.1704 0l.186-.254c.31-.425.4341-.934.4341-1.528v-3.225c0-.594-.3101-1.019-.7442-1.019h-28.029c-.4341 0-.7442.425-.7442 1.019v3.225c0 .594.1861 1.103.4341 1.528l.186.254c.6201.849 1.6123.849 2.2324 0z" fill="#8f5338"/><path d="m91.3628 149h-27.7313c-.3684 0-.6315-.5-.6315-1 0-.583.3157-1 .6315-1h27.7313c.3683 0 .6314.5.6314 1 .0527.5-.2631 1-.6314 1z" fill="#8f5338"/><path d="m53.5523 142.154s8.8514 2.814 13.3413 2.202c1.0027-.048 1.0075.031 1.9907.234l.0196 2.032c-.1202.108-.2153.241-.2787.39s-.0936.309-.0885.471c.0091.295.1353.575.3506.777.2153.203.5022.311.7975.302l.1894-.006 7.4324-.293c.1285-.004.2564.02.375.069.1186.05.2252.125.3125.219.0874.094.1535.206.1939.328.0405.122.0542.252.0404.38-.0284.222-.1362.428-.3036.577-.1674.15-.3831.235-.6077.238l-11.5168.483c-1.0611.033-1.1203-.109-2.135-.421l-2.1818-2.144-12.6335-.254z" fill="#fdb47e"/><path d="m70.384 148.48-.1895.006c-.2953.009-.5822-.1-.7975-.302s-.3415-.482-.3507-.777c-.0091-.296.0994-.583.3017-.798.2024-.215.482-.341.7773-.351l.1895-.005 2.9679-.093c.1181-.003.2344-.03.3422-.078.1078-.049.205-.118.286-.204s.1442-.187.1861-.298c.0419-.11.0615-.228.0578-.346-.0036-.118-.0306-.235-.0792-.342-.0487-.108-.1181-.205-.2043-.286-.0861-.081-.1874-.144-.298-.186-.1106-.041-.2283-.061-.3464-.057l-3.4447.107-1.3882.043-2.1423-.078-.937 1.38 2.9807 3.218 2.3297.376z" fill="#fdb47e"/><path d="m34.4491 135.704-1.7175-17.609s-3.0563-7.279-5.8611-5.429c-2.0642 1.361-2.3075 1.03-3.4036 3.241-1.3301 2.681-1.3039 7.575-.9216 10.413 1.0304 7.65 2.3064 15.248 3.7418 22.832.2385 1.26.9133 2.396 1.9068 3.211.9935.814 2.2427 1.254 3.5298 1.244l25.8511-.003c.1078-.001.2144-.024.3127-.068.0983-.045.1863-.109.2582-.189.072-.08.1263-.174.1596-.277.0332-.102.0446-.21.0335-.317l-1.1076-10.618c-.0194-.186-.1061-.359-.2439-.485-.1377-.127-.3171-.2-.5048-.205l-21.0453-.524z" fill="#9ae1a8"/><path d="m23.4667 115.906c1.0962-2.21 1.3394-1.879 3.4036-3.24.1993-.139.4265-.233.6658-.275s.4849-.032.7196.03c-.5766 1.451-1.4741 4.578-2.0913 6.502-.873 2.721-.495 6.312-.0721 8.546.4229 2.235 2.1699 15.594 2.1699 15.594s.7817 9.221 6.0224 10.524l-.0111.02h-2.5501c-1.2871.01-2.5362-.43-3.5297-1.244-.9935-.815-1.6683-1.951-1.9068-3.211-1.4355-7.584-2.7115-15.182-3.7419-22.832-.3821-2.838-.4083-7.732.9217-10.414z" fill="#3cb95a" opacity=".5"/><path d="m116.953 153.094-5.038 68.778s15.099 6.106 40.969-.751c0 0 2.34-41.397-9.741-72.629l-1.701-4.046z" fill="#007c37"/><g fill="#e48544"><path d="m103.124 178.575c.065-.148.085-.311.058-.47-.027-.16-.101-.307-.212-.424-.111-.118-.254-.2-.411-.236s-.322-.025-.473.032l-4.488 1.69c-.2033.077-.3679.231-.4575.429-.0444.098-.069.204-.0725.311-.0035.108.0143.215.0522.316.0379.1.0953.193.1688.271.0736.079.1619.142.2599.186s.2038.069.3113.073c.1075.003.2147-.015.3153-.053l4.4885-1.69c.101-.038.194-.097.273-.171.079-.075.143-.165.187-.264z"/><path d="m98.7417 180.222c.0865-.195.0936-.415.0197-.615l-1.5182-4.12c-.0751-.204-.2281-.37-.4254-.461-.1972-.091-.4226-.1-.6264-.025-.2039.075-.3695.228-.4606.426-.091.197-.1.422-.0249.626l1.5182 4.12c.0564.154.1572.286.2895.382.1322.095.2899.149.4529.154s.3239-.038.462-.125.2471-.213.3132-.362z"/><path d="m99.9104 179.053c.0865-.194.0936-.415.0197-.615l-1.5182-4.12c-.0751-.204-.2281-.37-.4254-.461-.1972-.091-.4226-.1-.6264-.025-.2039.075-.3695.228-.4606.426-.091.197-.1.422-.0249.626l1.5182 4.121c.0564.153.1572.285.2895.381.1322.095.2899.149.4529.154s.3239-.038.462-.125.2472-.213.3132-.362z"/><path d="m102.878 177.036c.068-.154.087-.326.054-.491-.032-.165-.115-.317-.237-.433-.122-.117-.276-.193-.443-.218s-.337.001-.488.076l-3.9315 1.957c-.0963.048-.1823.114-.2529.195s-.1246.176-.1588.278c-.0343.102-.048.209-.0406.317.0074.107.0358.212.0838.308.0479.096.1143.182.1955.253.0811.071.1753.125.2773.159s.2097.048.3171.04c.1073-.007.2121-.036.3084-.083l3.9317-1.957c.171-.085.306-.227.384-.401z"/><path d="m102.459 175.906c.069-.156.088-.329.054-.496s-.119-.319-.244-.436c-.124-.116-.282-.19-.451-.213-.169-.022-.34.009-.491.089l-3.1144 1.649c-.1902.103-.3322.277-.3949.484-.0627.206-.0412.43.06.621s.2738.334.4802.398c.2064.065.4298.045.6216-.055l3.1145-1.65c.162-.085.291-.223.365-.391z"/></g><path d="m99.2791 168.419s-5.0915 6.614-4.823 8.154c0 0 1.3303 1.225 1.3326 1.221 1.3008-2.05 2.7312-2.448 2.8184-1.886.2972-.384 2.2109-.035 2.2119-.594.835-4.075 2.875-6.994 4.095-10.238l-3.471-1.539z" fill="#fdb47e"/><path d="m97.9488 180.752c.0497-.112.0737-.233.0703-.355-.0035-.123-.0344-.243-.0904-.351l-1.9298-3.758c-.0484-.097-.1156-.184-.1976-.254-.082-.071-.1772-.125-.2801-.158-.103-.034-.2115-.047-.3195-.039-.108.009-.2132.039-.3095.088-.0964.05-.1819.118-.2518.201-.0698.082-.1226.178-.1552.281-.0326.104-.0444.212-.0347.32s.0407.213.0911.309l1.9298 3.758c.0706.137.1787.252.3117.331.1331.079.2856.118.4402.114.1545-.005.3046-.053.433-.139.1283-.086.2297-.206.2925-.348z" fill="#fdb47e"/><path d="m102.156 180.368c.058-.131.081-.274.066-.416s-.066-.278-.15-.393c-.083-.116-.195-.208-.324-.268-.13-.059-.273-.083-.415-.07l-4.2074.383c-.2164.02-.416.125-.5551.291-.139.167-.2061.383-.1864.599s.1246.416.2915.555.3823.206.5986.186l4.2068-.383c.146-.013.285-.065.404-.15s.212-.201.271-.334z" fill="#fdb47e"/><path d="m100.428 180.353c.071-.491.126-.981.17-1.472.043-.491.081-.982.109-1.473.03-.491.056-.982.073-1.473.02-.492.034-.983.036-1.475.001-.286-.111-.562-.311-.767-.201-.205-.473-.323-.7601-.328-.2866-.006-.5639.101-.772.299-.2082.197-.3306.468-.3408.754-.0175.491-.0222.983-.021 1.475-.0025.491.0043.983.0159 1.475.0088.492.0273.984.0509 1.476.0254.492.061.984.1126 1.477.0209.2.1143.386.2626.522.1482.136.3411.213.5423.217s.397-.066.5506-.196c.153-.13.254-.312.282-.511z" fill="#fdb47e"/><path d="m101.472 127.825c-2.9176 1.906-.923 20.973-.958 24.135-.115 3.147-3.4616 16.188-3.4616 16.188l7.6346 6.245s3.695-18.218 4.12-20.789c.424-2.571-.303-14.279-.303-14.279s.784-3.099-1.577-6.993c-2.49-4.091-5.455-4.507-5.455-4.507z" fill="#c6f4cc"/><path d="m108.933 147.896c-6.957-6.21-6.183-16.333-5.633-20.44 1.018.64 2.375 1.788 3.513 3.594 2.465 4.002 1.659 7.18 1.659 7.18s.35 5.34.461 9.666z" fill="#78d389"/><path d="m117.224 154.705s-17.4851-21.562-17.2918-26.014c.1938-4.451 8.1918-10.825 8.1918-10.825l17.131-7.965 15.976 34.206z" fill="#c6f4cc"/><path d="m108.727 91.3765s-10.3969-4.7006-15.5143 2.0261c-5.1986 6.7264 5.0362 26.2584 5.0362 26.2584l20.7941-4.782s-1.624-2.512-2.112-9.32c-.487-6.8074-.812-16.1276-8.204-14.1825z" fill="#3d2e2c"/><path d="m117.972 114.823c-4.873-.81-6.604-8.806-6.604-8.806l-5.79 7.89c.812.811 1.806 3.02 2.212 3.668 3.291 4.755 6.963 9.54 10.182-2.752z" fill="#fdb47e"/><path d="m105.313 113.772c.982 1.063 1.669 2.126 2.16 2.977 4.712-3.403 3.829-9.357 3.829-9.357z" fill="#e48544"/><path d="m110.267 99.0587c2.553-1.0399 3.787-1.4978 4.771-.3521s1.482 3.8544 2.121 7.9874c.639 4.132.813 6.994.813 6.994s-1.43 1.063-4.004 1.303c-2.574.241-3.098 0-3.098 0s1.829-4.679 1.846-8.103c.017-3.423-2.449-7.8293-2.449-7.8293z" fill="#3d2e2c"/><path d="m100.604 95.5102c-5.6857 1.9451-6.4167 5.5918-4.8734 11.5088 1.9495 7.456 6.0054 10.883 7.9314 9.73 2.96-1.772 8.154-6.495 8.181-9.73.056-6.531-4.938-13.6224-11.239-11.5088z" fill="#fdb47e"/><path d="m102.63 104.008c.144.463.431.695.719.618.287-.077.359-.541.287-1.004-.144-.464-.431-.695-.718-.618-.359.154-.431.541-.288 1.004z" fill="#2e353a"/><path d="m96.7865 105.56c.1624.486.4873.729.8123.648.3249-.081.4061-.567.3249-1.054-.1625-.486-.4874-.729-.8123-.648-.4062.162-.4874.648-.3249 1.054z" fill="#2e353a"/><path d="m104.097 101.236c-.081 0-.081 0-.162-.081-1.056-.73-2.437-.162-2.437-.162-.163.081-.325-.001-.406-.163-.082-.162 0-.324.162-.405.081 0 1.706-.7292 3.006.243.162.081.162.243.081.406-.081.081-.163.162-.244.162z" fill="#2e353a"/><path d="m95.162 103.586c-.0812 0-.0812 0-.1624 0-.1625-.081-.1625-.243-.0813-.406.8936-1.458 2.112-1.62 2.112-1.62.1624 0 .3249.081.3249.243s-.0812.324-.2437.324c-.0812 0-.9747.162-1.7058 1.297-.0812.162-.1624.162-.2437.162z" fill="#2e353a"/><path d="m110.027 102.966s-4.224-3.7279-5.036-7.4559c0 0-12.7532-.7294-9.4229 10.7789 0 0-4.5488-9.7253 5.1169-13.2102 9.585-3.566 14.459 10.6172 10.885 16.6142 0-.081 1.137-4.458-1.543-6.727z" fill="#3d2e2c"/><path d="m109.768 104.597c-.196-.909.131-2.811 1.504-3.225 1.439-.413 3.139 2.977-.13 5.375-.458.331-.916-.165-1.374-2.15z" fill="#fdb47e"/><path d="m111.516 102.745c-.029-.048-.064-.093-.103-.133-.021-.022-.047-.04-.076-.05-.006-.002-.014 0-.02.004-.02.01-.038.026-.05.046-.046.076-.063.166-.048.253.007.054.023.107.046.157.027.06.06.116.098.17.084.12.191.247.295.384.115.142.215.296.298.459.045.092.078.191.096.292.02.108.016.219-.011.326-.027.102-.075.198-.139.281-.059.075-.127.142-.203.199-.024.019-.054.029-.085.027-.031-.001-.06-.014-.081-.036-.022-.021-.036-.05-.038-.08-.002-.031.007-.061.025-.085l.006-.007c.044-.057.083-.119.116-.183.027-.056.043-.117.046-.18-.002-.122-.044-.241-.12-.338-.089-.121-.188-.235-.296-.341-.113-.114-.235-.231-.355-.373-.067-.077-.126-.16-.175-.248-.054-.098-.094-.204-.117-.313-.055-.243-.012-.497.119-.708.078-.121.189-.217.321-.277.147-.065.314-.072.467-.021.128.046.243.126.331.23.072.085.131.179.175.28.031.068.035.144.011.215-.023.07-.072.129-.137.164-.066.036-.142.045-.214.026-.071-.018-.133-.064-.173-.126z" fill="#e48544"/><path d="m101.327 108.527c-.162.2-.385.342-.634.405-.116.033-.236.049-.356.048-.062-.001-.124-.003-.187-.008l-.095-.007c-.043.001-.0872-.002-.1306-.007-.1564-.023-.3067-.077-.4421-.159-.1304-.074-.2368-.184-.3063-.317-.1186-.242-.1585-.515-.1144-.78l.0012-.01.0019-.007c.0606-.226.1122-.462.1523-.697.0367-.236.0684-.472.0829-.71.0149-.237.0129-.474-.0061-.71-.0181-.232-.0618-.461-.1304-.683-.0133-.041-.0102-.084.0088-.122s.0523-.067.0925-.08c.0402-.014.0841-.011.122.008s.0666.053.08.093c.0013.004.0025.008.0035.012l.0022.009c.0577.246.0931.496.1057.749.0099.247.0062.495-.0109.743-.0181.246-.0472.49-.0851.733-.0389.244-.0839.482-.1443.726l.004-.022c-.0295.204.0054.411.0998.594.0421.078.107.142.1861.183.0797.041.1696.059.259.051.0215-.003.0429-.006.064-.011l.0863-.022.173-.045.345-.088.692-.178c.029-.007.059-.005.087.005.028.011.051.03.067.055.017.025.025.054.023.084-.001.029-.012.058-.03.081z" fill="#e48544"/><path d="m102.328 103.776c-.024.007-.05.006-.074-.002s-.046-.022-.062-.041-.027-.043-.03-.068c-.004-.025 0-.05.01-.074.089-.181.213-.343.365-.477.152-.133.329-.235.52-.3.597-.192 1.438-.011 1.473-.004.035.008.066.029.085.059s.026.067.018.102-.029.065-.059.084-.066.026-.101.018c-.008-.002-.806-.174-1.334-.002-.313.107-.572.333-.721.63-.008.018-.021.035-.036.048-.016.013-.034.022-.054.027z" fill="#3d2e2c"/><path d="m98.1949 104.855c-.0259.006-.0532.005-.0784-.004-.0063-.002-.6262-.22-1.1463-.052-.2597.094-.4937.248-.6832.449-.0251.025-.0593.039-.095.04-.0356 0-.0699-.014-.0953-.039-.0253-.026-.0397-.06-.0398-.095-.0002-.036.0138-.07.0389-.096.22-.232.4916-.408.7926-.516.6047-.195 1.29.045 1.3188.056.0271.009.0503.028.0663.052.016.023.0239.052.0225.081-.0013.028-.0119.056-.0301.078-.0182.023-.0431.038-.071.046z" fill="#3d2e2c"/><path d="m136.796 134.25c-9.189-5.015-11.118-16.384-11.118-16.384s2.156 1.338 4.992 3.455z" fill="#78d389"/><path d="m125.254 109.901c3.455-1.033 17.814 14.468 20.319 16.45 2.504 1.982 18.724 8.484 18.724 8.484l-5.191 5.222s-15.631-4.947-17.962-6.325c-2.332-1.379-11.078-7.674-11.078-7.674s-2.826-4.525-4.294-9.091c-1.381-4.481-.518-7.066-.518-7.066z" fill="#c6f4cc"/><path d="m103.309 110.308c.137.795-.072 1.795-.643 2.008-1.17.437-1.775-.256-2.18-.748.485-1.04.816-.809 1.336-1.04.52-.232 1.255.303 1.487-.22z" fill="#fff"/><path d="m103.309 110.308c.137.796-.072 1.796-.644 2.009-1.169.436-1.774-.256-2.179-.749.39 0 .608-.232 1.128-.464.519-.232 1.463-.272 1.695-.796z" fill="#e48544" opacity=".7"/><path d="m102.855 112.427c.45-.263.665-.904.657-1.953 0-.049-.02-.095-.054-.13-.034-.034-.08-.053-.128-.054-.048 0-.093.019-.127.052-.034.034-.052.08-.052.129.008.96-.179 1.524-.555 1.677-.851.345-1.38-.098-1.766-.421-.038-.032-.075-.063-.11-.091-.038-.03-.085-.043-.132-.038-.047.006-.09.03-.119.067s-.043.084-.037.132c.005.047.029.091.065.122.034.027.069.056.106.087.404.339 1.082.905 2.132.48.041-.017.081-.037.12-.059z" fill="#e48544"/></g></svg>