<svg fill="none" height="24" viewBox="0 0 25 24" width="25" xmlns="http://www.w3.org/2000/svg"><path clip-rule="evenodd" d="m24.2178 21.5566-6.5142-6.5738c1.1677-1.6065 1.7932-3.5488 1.7845-5.54082-.0223-5.19993-4.1917-9.4118509-9.3465-9.44188448-2.46683-.01125872-4.8357.97317248-6.57886 2.73399448-1.74315 1.76082-2.715798 4.15175-2.701251 6.64018.02228 5.20043 4.192001 9.41273 9.347311 9.44273 1.9828.0087 3.9152-.6297 5.5089-1.8198l.0068-.0051 6.5083 6.5686c.3518.3724.8762.5231 1.3698.3938.4936-.1294.879-.5184 1.0067-1.0165.1278-.498-.0221-1.0268-.3915-1.3814zm-14.016-4.6191c-4.12397-.024-7.45969-3.3935-7.4778-7.55356-.01113-1.99048.76705-3.90285 2.16132-5.3114 1.39426-1.40855 3.28888-2.19637 5.26208-2.18811 4.124.02393 7.4598 3.39342 7.4779 7.55351.0111 1.99046-.7671 3.90286-2.1613 5.31136-1.3943 1.4086-3.2889 2.1964-5.2622 2.1882z" fill="#676767" fill-rule="evenodd"/></svg>